<svg width="15" height="13" viewBox="0 0 15 13" fill="none" xmlns="http://www.w3.org/2000/svg">
<rect x="13.2598" y="11.3843" width="12.2499" height="10.4999" transform="rotate(179.314 13.2598 11.3843)" fill="white"/>
<path d="M12.341 8.40775C7.62085 8.04914 8.726 5.03299 5.82276 3.77969C2.91953 2.52638 2.01631 3.42615 2.01631 3.42615C2.96274 1.3614 5.8946 1.14657 8.79784 2.39988C11.7011 3.65318 13.2874 6.343 12.341 8.40775Z" fill="#7A6427"/>
<path d="M2.04541 3.47321C6.64873 4.16876 5.79089 6.91522 8.60273 8.35147C11.4146 9.78772 12.6457 7.90395 12.228 8.67435C11.1437 10.6742 7.98521 11.1311 5.17337 9.69484C2.36153 8.25859 0.961096 5.47307 2.04541 3.47321Z" fill="#7A6427"/>
</svg>
